<?xml version="1.0" encoding="utf-8"?>
<svg xmlns="http://www.w3.org/2000/svg">
  <defs>
    <symbol id="planet" viewBox="0 0 16 16">
      <path
        d="M14.1692 3.71888C12.7989 1.84023 11.0012 0.775068 8.6355 0.5C9.74223 1.7817 10.5035 3.16875 10.9895 4.71966C12.0962 4.49141 13.1444 4.19294 14.1692 3.71888Z"
        />
      <path
        d="M4.25006 5.52288C3.83001 5.41303 3.42197 5.30631 3.01989 5.18202C2.66058 5.06606 2.30606 4.93336 1.95173 4.80073C1.7517 4.72586 1.55173 4.65102 1.35101 4.57922C0.162292 6.66856 0.273551 9.63579 1.34515 11.3857C1.94399 11.1975 2.53794 11.0093 3.13731 10.8194L3.1384 10.8191C3.67559 10.6489 4.21745 10.4772 4.77076 10.303C4.45455 8.78132 4.4604 7.21285 4.77661 5.66193C4.59874 5.61407 4.42337 5.5682 4.25006 5.52288Z"
        />
      <path
        d="M12.9458 5.15847C12.3749 5.33989 11.8035 5.52147 11.2297 5.70289C11.5459 7.23625 11.5342 8.79301 11.2297 10.2971C12.3891 10.6658 13.5193 11.0228 14.6612 11.3798C15.7855 9.45435 15.7737 6.52809 14.6612 4.61432C14.0874 4.7957 13.5166 4.97709 12.9458 5.15847Z"
        />
      <path
        d="M5.7194 10.2269C5.39148 8.74034 5.40319 7.28307 5.70183 5.82579C5.94061 5.83983 6.17518 5.8565 6.40679 5.87296C6.9476 5.91139 7.47255 5.94869 7.99728 5.94869C8.52199 5.94869 9.0467 5.91141 9.58748 5.87298C9.81907 5.85652 10.054 5.83983 10.2927 5.82579C10.6148 7.25966 10.6031 8.72864 10.2869 10.221C8.75267 10.022 7.2536 10.0103 5.7194 10.2269Z"
        />
      <path
        d="M14.1693 12.2753C12.8107 14.1539 11.0072 15.2132 8.64145 15.5C9.73062 14.2242 10.5094 12.843 10.9837 11.2862C12.0846 11.4969 13.1269 11.8129 14.1693 12.2753Z"
        />
      <path
        d="M7.35894 0.5C4.99322 0.780921 3.18965 1.84608 1.78428 3.78326C2.88515 4.12271 3.92162 4.44459 4.99322 4.77819C5.49096 3.15704 6.26391 1.7817 7.35894 0.5Z"
        />
      <path
        d="M7.35894 15.5C4.99907 15.2191 3.20136 14.1598 1.78428 12.2167C2.13525 12.1085 2.47968 12.0021 2.82079 11.8967L2.82228 11.8962C3.55057 11.6711 4.26377 11.4508 4.99322 11.2277C5.49096 12.8312 6.2522 14.2183 7.35894 15.5Z"
        />
      <path
        d="M10.0408 4.86013C9.60158 3.48479 8.92817 2.28503 7.99711 1.19646C7.06019 2.30258 6.38093 3.4965 5.95931 4.86013C7.33541 5.04156 8.67052 5.04741 10.0408 4.86013Z"
        />
      <path
        d="M8.00297 14.8035C7.07191 13.7208 6.39849 12.521 5.95931 11.1457C7.3237 10.9526 8.65881 10.9584 10.0466 11.1399C9.60744 12.5093 8.93403 13.7033 8.00297 14.8035Z"
        />
    </symbol>

    <symbol id="shield" viewBox="0 0 100 100" >
      <path d="M49.5529 99.1214C36.8544 99.1214 24.1662 94.2919 14.4966 84.6223C-4.83221 65.2934 -4.83221 33.8489 14.4966 14.5201C23.8644 5.15229 36.3131 0 49.5529 0C62.7927 0 75.2415 5.15229 84.6092 14.5201C103.938 33.8489 103.938 65.2934 84.6092 84.6223C74.95 94.2815 62.2514 99.1214 49.5529 99.1214ZM17.0988 82.0201C34.9912 99.9126 64.1042 99.9126 81.9967 82.0201C99.8891 64.1277 99.8891 35.0147 81.9967 17.1222C73.3263 8.45183 61.8039 3.6847 49.5425 3.6847C37.2812 3.6847 25.7588 8.46223 17.0884 17.1222C-0.804078 35.0147 -0.804078 64.1277 17.0884 82.0201H17.0988Z"/>
      <path d="M48.8973 68.114C49.0742 68.5407 49.4906 68.7904 49.9277 68.7904C50.0735 68.7904 50.2192 68.7592 50.3649 68.7072C53.8622 67.2396 57.0473 64.9704 59.5661 62.1393C59.9721 61.6813 59.9304 60.9736 59.4724 60.5677C59.0145 60.1618 58.3067 60.2034 57.9007 60.6613C55.6004 63.2531 52.6964 65.3244 49.501 66.6567C48.9389 66.8961 48.6683 67.5519 48.9077 68.114H48.8973Z"/>
      <path d="M68.4429 32.4331L49.9572 25.0429C49.6866 24.9388 49.3951 24.9388 49.1245 25.0429L30.6388 32.4331C30.212 32.5996 29.9414 33.0055 29.9414 33.4635V46.7033C29.9622 58.923 37.6855 69.9666 49.1558 74.1717C49.2807 74.2133 49.4056 74.2342 49.5409 74.2342C49.6762 74.2342 49.8011 74.2133 49.926 74.1717C61.3963 69.9562 69.1195 58.923 69.1403 46.7033V33.4635C69.1403 33.0055 68.8697 32.5996 68.4429 32.4331ZM66.9129 46.7033C66.8921 57.8197 59.9182 67.9473 49.5512 71.9338C39.1842 67.9473 32.2 57.8197 32.1792 46.7033V34.2233L49.5512 27.2808L66.9129 34.2233V46.7033Z"/>
      <path d="M41.8287 34.1713C41.5581 34.0568 41.2562 34.0568 40.9752 34.1713L36.5724 35.9304C36.1456 36.097 35.875 36.5029 35.875 36.9609V41.6552C35.875 42.2693 36.3746 42.7689 36.9887 42.7689C37.6028 42.7689 38.1024 42.2693 38.1024 41.6552V37.7207L41.7975 36.2428C42.0785 36.1283 42.2867 35.92 42.4116 35.639C42.5261 35.3683 42.5261 35.0666 42.4116 34.7855C42.2971 34.5045 42.0889 34.2962 41.8183 34.1713H41.8287Z"/>
      <path d="M77.708 21.4209C70.193 13.8954 60.1902 9.76318 49.5526 9.76318C38.915 9.76318 28.9227 13.9058 21.3973 21.4209C5.87799 36.9401 5.87799 62.2019 21.3973 77.7316C29.1621 85.4965 39.3522 89.3684 49.5526 89.3684C59.7531 89.3684 69.9432 85.4861 77.708 77.7316C93.2273 62.2123 93.2273 36.9506 77.708 21.4209ZM72.2018 46.7034C72.233 60.8279 63.2087 73.183 49.7504 77.461C49.6255 77.5026 49.4902 77.5026 49.3548 77.461C35.8965 73.183 26.8723 60.8279 26.9035 46.7034V31.08C26.9035 30.8198 27.0596 30.5805 27.3094 30.4764L49.3132 21.6811C49.3861 21.6499 49.4693 21.6395 49.5526 21.6395C49.6359 21.6395 49.7192 21.6499 49.7921 21.6811L71.7959 30.4868C72.0457 30.5805 72.2018 30.8198 72.2018 31.0905V46.7138V46.7034Z"/>
    </symbol>

    <symbol id="chip" viewBox="0 0 100 100">
      <path d="M49.5451 99.0902C22.2225 99.0902 0 76.8574 0 49.5451C0 22.2329 22.2329 0 49.5451 0C76.8574 0 99.0902 22.2329 99.0902 49.5451C99.0902 76.8574 76.8574 99.0902 49.5451 99.0902ZM49.5451 3.29952C24.044 3.29952 3.29958 24.044 3.29958 49.5451C3.29958 75.0463 24.044 95.7906 49.5451 95.7906C75.0463 95.7906 95.7907 75.0463 95.7907 49.5451C95.7907 24.044 75.0463 3.29952 49.5451 3.29952Z" />
      <path d="M81.8733 14.191L66.535 29.5293L69.5526 32.5469L84.8909 17.2086L81.8733 14.191Z" />
      <path d="M29.0764 66.9899L13.7382 82.3281L16.7557 85.3457L32.094 70.0075L29.0764 66.9899Z" />
      <path d="M70.0175 66.9873L66.9999 70.0049L82.3381 85.3431L85.3557 82.3255L70.0175 66.9873Z" />
      <path d="M16.7675 13.7261L13.7499 16.7437L29.0808 32.0746L32.0984 29.057L16.7675 13.7261Z" />
      <path d="M61.641 50.8772C62.6402 49.878 62.6402 48.2647 61.641 47.2758L59.5176 45.1629C58.5183 44.1637 56.905 44.1637 55.9162 45.1629L54.7712 46.3078L53.4494 44.986C52.4501 43.9867 50.8368 43.9867 49.848 44.986L48.703 46.1413L47.3811 44.809C46.3819 43.8098 44.7685 43.8098 43.7797 44.809L36.7539 51.8348C36.7018 51.8869 36.7018 51.9701 36.7539 52.0326C37.6907 52.9694 39.2208 52.9694 40.1679 52.0326L44.6957 47.5048C45.1849 47.0156 45.9759 47.0156 46.4652 47.5048L46.7982 47.8379C46.8607 47.9004 46.8607 47.994 46.7982 48.0565L43.0199 51.8348C42.9679 51.8869 42.9679 51.9701 43.0199 52.0326C43.9567 52.9694 45.4867 52.9694 46.4339 52.0326L50.7743 47.6922C51.2635 47.203 52.0546 47.203 52.5438 47.6922L52.8768 48.0253C52.9289 48.0773 52.9289 48.1606 52.8768 48.223L49.2338 51.866C49.1818 51.9181 49.1818 52.0014 49.2338 52.0638C50.1706 53.0006 51.7007 53.0006 52.6479 52.0638L56.8425 47.8691C57.3317 47.3799 58.1228 47.3799 58.612 47.8691L59.3302 48.5873C59.6112 48.8684 59.6112 49.3367 59.3302 49.6178L59.2157 49.7323C58.9347 50.0133 58.4663 50.0133 58.1853 49.7323L57.2589 48.8059C57.2069 48.7539 57.1236 48.7539 57.0611 48.8059L55.4582 50.4088C55.4062 50.4609 55.4062 50.5442 55.4582 50.6066L56.905 52.0534C57.9043 53.0526 59.5176 53.0526 60.5064 52.0534L61.6514 50.9085L61.641 50.8772Z" />
      <path d="M49.5462 11.543C28.5624 11.543 11.5547 28.5507 11.5547 49.5345C11.5547 70.5183 28.5624 87.526 49.5462 87.526C70.53 87.526 87.5377 70.5183 87.5377 49.5345C87.5377 28.5507 70.53 11.543 49.5462 11.543ZM51.0971 23.2735C57.1965 23.6274 62.7339 26.063 67.0223 29.8726L61.5369 35.3579C58.6745 32.9327 55.0628 31.361 51.0971 31.0279V23.2735ZM48.0057 23.2735V31.0279C44.04 31.3506 40.4282 32.9327 37.5659 35.3579L32.0805 29.8726C36.3688 26.063 41.9062 23.6274 48.0057 23.2735ZM29.8947 32.0584L35.38 37.5438C32.9548 40.4061 31.3831 44.0179 31.05 47.9836H23.2956C23.6495 41.8842 26.0851 36.3467 29.8947 32.0584ZM23.2956 51.075H31.05C31.3727 55.0407 32.9548 58.6525 35.38 61.5148L29.8947 67.0002C26.0851 62.7118 23.6495 57.1744 23.2956 51.075ZM48.0057 75.7851C41.9062 75.4312 36.3688 72.9955 32.0805 69.186L37.5659 63.7006C40.4282 66.1258 44.04 67.6975 48.0057 68.0306V75.7851ZM33.5793 49.5241C33.5793 40.708 40.7301 33.5572 49.5462 33.5572C58.3623 33.5572 65.513 40.708 65.513 49.5241C65.513 58.3402 58.3623 65.4909 49.5462 65.4909C40.7301 65.4909 33.5793 58.3402 33.5793 49.5241ZM51.0971 75.7851V68.0306C55.0628 67.708 58.6745 66.1258 61.5369 63.7006L67.0223 69.186C62.7339 72.9955 57.1965 75.4312 51.0971 75.7851ZM69.2081 67.0002L63.7228 61.5148C66.148 58.6525 67.7196 55.0407 68.0527 51.075H75.8072C75.4533 57.1744 73.0176 62.7118 69.2081 67.0002ZM68.0527 47.9836C67.7301 44.0179 66.148 40.4061 63.7228 37.5438L69.2081 32.0584C73.0176 36.3467 75.4533 41.8842 75.8072 47.9836H68.0527Z" />
    </symbol>

    <symbol id='long-crown' viewBox="0 0 100 220">
      <path d="M14.6173 205.26C-4.87243 185.77 -4.87243 154.061 14.6173 134.571C34.107 115.082 65.8157 115.082 85.3054 134.571C104.795 154.061 104.795 185.77 85.3054 205.26C65.8157 224.749 34.107 224.749 14.6173 205.26ZM82.9498 136.927C64.7588 118.736 35.164 118.736 16.9777 136.927C-1.21338 155.118 -1.21338 184.713 16.9777 202.899C35.1687 221.09 64.7635 221.09 82.9498 202.899C101.141 184.708 101.141 155.113 82.9498 136.927Z" />
      <path d="M83.4931 159.313C83.3177 159.137 83.1755 158.915 83.0949 158.668C81.3649 153.549 78.54 149.013 74.7009 145.174C70.8664 141.34 66.3258 138.515 61.2069 136.78C60.5291 136.548 60.0741 135.918 60.0741 135.202V123.054C60.0741 122.542 60.3111 122.059 60.7139 121.741C61.1216 121.423 61.6477 121.314 62.1406 121.438C70.8901 123.627 78.9002 128.168 85.2989 134.571C91.6975 140.975 96.2382 148.98 98.4279 157.73C98.5512 158.227 98.4374 158.753 98.1246 159.161C97.807 159.569 97.3236 159.801 96.8117 159.801H84.6638C84.2087 159.801 83.7917 159.616 83.4836 159.308L83.4931 159.313ZM77.0565 142.819C80.9715 146.734 83.9244 151.322 85.8487 156.469H94.6361C92.4274 149.113 88.4129 142.392 82.948 136.927C77.4831 131.462 70.7622 127.448 63.4109 125.244V134.031C68.5582 135.951 73.1462 138.904 77.0612 142.823L77.0565 142.819Z" />
      <path d="M14.616 205.259C8.21737 198.861 3.67197 190.851 1.48222 182.101C1.35899 181.604 1.47275 181.077 1.78557 180.675C2.10313 180.267 2.58656 180.035 3.09845 180.035H15.2464C15.9621 180.035 16.5972 180.49 16.8247 181.167C18.5547 186.286 21.3795 190.822 25.2187 194.661C29.0531 198.496 33.5938 201.321 38.7127 203.055C39.3905 203.283 39.8455 203.918 39.8455 204.634V216.782C39.8455 217.294 39.6085 217.777 39.2056 218.095C38.798 218.412 38.2719 218.521 37.7742 218.398C29.0247 216.208 21.0194 211.668 14.616 205.269V205.259ZM5.28348 183.362C7.49219 190.718 11.5067 197.439 16.9716 202.904C22.4365 208.369 29.1575 212.383 36.5135 214.592V205.805C31.3662 203.885 26.7781 200.932 22.8631 197.017C18.9481 193.102 15.9952 188.514 14.0709 183.367H5.28348V183.362Z" />
      <path d="M60.5623 217.953C60.2495 217.64 60.0741 217.218 60.0741 216.772V204.625C60.0741 203.909 60.5291 203.274 61.2069 203.046C66.3258 201.316 70.8617 198.491 74.7009 194.652C78.54 190.813 81.3601 186.277 83.0949 181.158C83.3224 180.48 83.9575 180.025 84.6732 180.025H96.8211C97.333 180.025 97.8165 180.262 98.1341 180.665C98.4516 181.068 98.5606 181.599 98.4374 182.092C96.2429 190.841 91.7022 198.847 85.3036 205.25C78.905 211.654 70.8949 216.194 62.1454 218.384C61.6477 218.507 61.1216 218.393 60.7187 218.081C60.6666 218.033 60.6144 217.991 60.567 217.943L60.5623 217.953ZM63.4061 205.8V214.587C70.7622 212.379 77.4831 208.364 82.948 202.899C88.4129 197.434 92.4227 190.713 94.6361 183.357H85.8487C83.9291 188.505 80.9762 193.088 77.0565 197.008C73.1415 200.923 68.5535 203.88 63.4061 205.8Z" />
      <path d="M1.91901 159.313C1.87161 159.266 1.82423 159.213 1.78631 159.161C1.46875 158.758 1.35973 158.228 1.48296 157.73C3.67271 148.98 8.21337 140.97 14.6167 134.572C21.0201 128.173 29.0254 123.628 37.775 121.438C38.2726 121.315 38.7988 121.428 39.2016 121.741C39.6045 122.059 39.8415 122.542 39.8415 123.054V135.202C39.8415 135.918 39.3865 136.553 38.7087 136.78C33.5898 138.51 29.0539 141.335 25.2147 145.174C21.3803 149.009 18.5554 153.549 16.8207 158.668C16.5932 159.346 15.9581 159.801 15.2424 159.801H3.09448C2.64895 159.801 2.22235 159.626 1.91427 159.318L1.91901 159.313ZM36.5095 125.244C29.1535 127.453 22.4325 131.467 16.9676 136.932C11.5027 142.397 7.49293 149.118 5.27948 156.474H14.0669C15.9865 151.327 18.9393 146.743 22.8591 142.824C26.7741 138.909 31.3622 135.956 36.5095 134.031V125.244Z" />
      <path fill-rule="evenodd" clip-rule="evenodd" d="M77.0605 142.819C62.121 127.879 37.8062 127.874 22.8666 142.819C7.9223 157.763 7.92704 182.073 22.8666 197.013C37.8062 211.952 62.1162 211.957 77.0605 197.013C92.0049 182.068 92.0001 157.758 77.0605 142.819ZM63.7795 183.593L36.2519 183.775C35.0923 183.783 34.1584 184.729 34.1661 185.889L34.1726 186.87C34.1803 188.03 35.1266 188.964 36.2862 188.956L63.8139 188.773C64.9735 188.766 65.9073 187.819 65.8996 186.66L65.8931 185.679C65.8854 184.519 64.9391 183.585 63.7795 183.593ZM39.1255 166.778C39.4004 166.91 39.7037 166.977 40.0023 166.977L39.9976 166.972C40.6422 166.972 41.2489 166.65 41.6139 166.119L43.0168 164.085C43.3296 163.63 43.4386 163.062 43.3154 162.521C43.1922 161.981 42.8462 161.512 42.3675 161.242L39.808 159.782C39.5046 159.606 39.1634 159.521 38.8174 159.521C38.0117 159.526 37.296 160.014 36.9926 160.763L36.0067 163.218C35.6181 164.18 36.0447 165.285 36.9784 165.74L39.1255 166.778ZM59.8211 166.844C59.1765 166.844 58.5651 166.536 58.1954 166.01L56.8066 164.052C56.4843 163.602 56.3706 163.033 56.4844 162.493C56.5981 161.953 56.9394 161.479 57.4181 161.199L60.0581 159.649C60.3567 159.474 60.698 159.379 61.044 159.374C61.8497 159.37 62.5749 159.848 62.8877 160.592L63.8831 162.976C64.2812 163.934 63.8689 165.048 62.9446 165.512L60.698 166.635C60.4278 166.768 60.1244 166.844 59.8258 166.844H59.8211ZM35.1334 180.049C35.5458 181.186 36.6311 181.945 37.8398 181.935V181.93L62.1829 181.769C63.3916 181.76 64.4723 180.992 64.8656 179.85L69.1788 167.455C69.4537 167.607 69.7476 167.726 70.0509 167.82C70.5202 167.963 71.0036 168.029 71.4965 168.029L71.7999 168.019C74.3451 167.844 76.3263 165.702 76.3073 163.152C76.2931 160.479 74.1033 158.317 71.4301 158.336C68.9797 158.35 66.9227 160.199 66.6478 162.635C66.6288 162.825 66.6194 163.019 66.6194 163.213C66.6194 163.645 66.681 164.071 66.7947 164.479C66.8895 164.815 67.0175 165.138 67.1786 165.446L58.5855 169.745L51.784 160.161C52.0637 160.042 52.3338 159.896 52.585 159.72C53.0637 159.393 53.4809 158.981 53.8221 158.497C54.4667 157.573 54.7653 156.488 54.6847 155.355C54.5094 152.961 52.5756 151.042 50.182 150.881C50.0636 150.871 49.9404 150.871 49.822 150.871H49.8218C47.1486 150.89 44.9873 153.08 45.0062 155.753C45.011 156.748 45.3238 157.711 45.902 158.526C46.2433 159.004 46.6651 159.412 47.1486 159.739C47.4045 159.914 47.6747 160.061 47.9544 160.18L41.2713 169.863L32.536 165.635C32.7067 165.36 32.8536 165.071 32.9721 164.768C33.1901 164.213 33.2944 163.621 33.2944 163.005C33.2802 160.332 31.0904 158.17 28.4172 158.189C25.744 158.208 23.5827 160.398 23.6017 163.071C23.6159 165.488 25.4312 167.541 27.8247 167.844C28.038 167.872 28.256 167.882 28.4788 167.882C28.8627 167.882 29.2419 167.835 29.6164 167.74C29.9339 167.659 30.2468 167.55 30.5406 167.408L35.1334 180.049Z" />
      <path d="M100 49.7776V169.222C100 170.21 99.3247 171 98.5001 171C97.6755 171 97.0001 170.2 97.0001 169.222V49.7776C97.0001 48.7901 97.6755 48 98.5001 48C99.3247 48 100 48.8004 100 49.7776Z" />
      <path d="M3 48.7776V168.222C3 169.21 2.32459 170 1.50003 170C0.675461 170 0 169.2 0 168.222V48.7776C0 47.7901 0.675461 47 1.50003 47C2.32459 47 3 47.8004 3 48.7776Z" />
      <path d="M99.979 49.2317C99.979 50.2141 99.1704 51 98.1832 51C97.196 51 96.3873 50.2037 96.3873 49.2317C96.3873 24.042 75.5724 3.54683 49.9895 3.54683C24.4066 3.54683 3.59167 24.042 3.59167 49.2317C3.59167 50.2141 2.78299 51 1.7958 51C0.808613 51 0 50.2037 0 49.2317C0 22.0876 22.4323 0 50 0C77.5677 0 100 22.0876 100 49.2317H99.979Z" />
    </symbol>

    <symbol id='long-dollar'  viewBox="0 0 100 220" >
      <path d="M99.111 170.691C99.111 198.014 76.8782 220.247 49.5555 220.247C22.2328 220.247 0 198.014 0 170.691C0 143.369 22.2328 121.136 49.5555 121.136C76.8782 121.136 99.111 143.369 99.111 170.691ZM3.57015 170.691C3.57015 196.047 24.2001 216.677 49.5555 216.677C74.9109 216.677 95.5408 196.047 95.5408 170.691C95.5408 145.336 74.9109 124.706 49.5555 124.706C24.2001 124.706 3.57015 145.336 3.57015 170.691Z" />
      <path d="M99.1136 49.5555C99.1136 50.5443 98.3122 51.3354 97.3338 51.3354C96.3553 51.3354 95.5539 50.5339 95.5539 49.5555C95.5539 24.2001 74.924 3.57015 49.5685 3.57015C24.2131 3.57015 3.58317 24.2001 3.58317 49.5555C3.58317 50.5443 2.78169 51.3354 1.80327 51.3354C0.824862 51.3354 0.0234375 50.5339 0.0234375 49.5555C0.0234375 22.2328 22.2563 0 49.5789 0C76.9016 0 99.1344 22.2328 99.1344 49.5555H99.1136Z" />
      <path d="M40.012 161.937C40.012 163.759 41.2506 165.341 43.0201 165.778L46.382 166.621V157.972H43.9881C41.8023 157.972 40.0224 159.752 40.0224 161.937H40.012Z" />
      <path d="M52.7293 183.411H55.1234C57.3092 183.411 59.0891 181.631 59.0891 179.445C59.0891 177.624 57.8504 176.041 56.081 175.604L52.719 174.761V183.411H52.7293Z" />
      <path d="M49.5564 130.368C27.3235 130.368 9.2229 148.458 9.2229 170.702C9.2229 192.945 27.3131 211.035 49.5564 211.035C71.7996 211.035 89.8898 192.945 89.8898 170.702C89.8898 148.458 71.7996 130.368 49.5564 130.368ZM65.4608 164.332H59.1011V161.147C59.1011 159.398 57.6751 157.961 55.916 157.961H52.731V168.204L57.6335 169.432C62.2341 170.587 65.4504 174.699 65.4504 179.445C65.4504 185.138 60.8185 189.77 55.125 189.77H52.731V197.827H46.3713V189.77H43.1863C37.9195 189.77 33.6416 185.492 33.6416 180.226V177.041H40.0012V180.226C40.0012 181.974 41.4272 183.411 43.1863 183.411H46.3713V173.168L41.4688 171.94C36.8682 170.785 33.652 166.673 33.652 161.927C33.652 156.234 38.2838 151.602 43.9773 151.602H46.3713V143.546H52.731V151.602H55.916C61.1828 151.602 65.4608 155.88 65.4608 161.147V164.332Z" />
      <path d="M99.173 48.7955V168.391C99.173 169.38 98.3716 170.171 97.3932 170.171C96.4148 170.171 95.6133 169.369 95.6133 168.391V48.7955C95.6133 47.8066 96.4148 47.0156 97.3932 47.0156C98.3716 47.0156 99.173 47.817 99.173 48.7955Z" />
      <path d="M3.63786 48.5357V168.131C3.63786 169.12 2.83637 169.911 1.85796 169.911C0.879549 169.911 0.078125 169.109 0.078125 168.131V48.5357C0.078125 47.5469 0.879549 46.7559 1.85796 46.7559C2.83637 46.7559 3.63786 47.5573 3.63786 48.5357Z" />
    </symbol>

    <symbol id='soccer'  viewBox="0 0 100 100" >
      <path d="M49.5451 99.0902C22.2224 99.0902 0 76.8573 0 49.5451C0 22.2328 22.2328 0 49.5451 0C76.8573 0 99.0902 22.2328 99.0902 49.5451C99.0902 76.8573 76.8573 99.0902 49.5451 99.0902ZM49.5451 3.29952C24.0439 3.29952 3.29952 24.0439 3.29952 49.5451C3.29952 75.0462 24.0439 95.7906 49.5451 95.7906C75.0462 95.7906 95.7906 75.0462 95.7906 49.5451C95.7906 24.0439 75.0462 3.29952 49.5451 3.29952Z" />
      <path d="M65.6194 18.6106C65.3696 18.6106 65.1198 18.5586 64.8908 18.4441C60.0924 16.0709 54.9298 14.8635 49.5485 14.8635C44.1672 14.8635 39.0046 16.0709 34.2062 18.4441C33.5712 18.7563 32.8114 18.6314 32.3118 18.1318L23.7975 9.61757C23.4332 9.25327 23.2667 8.75364 23.3291 8.24362C23.3916 7.7336 23.683 7.28604 24.1202 7.02583C31.7914 2.42521 40.5867 0 49.5589 0C58.5312 0 67.3265 2.43562 74.9976 7.02583C75.4348 7.28604 75.7262 7.7336 75.7887 8.24362C75.8511 8.75364 75.6742 9.25327 75.3203 9.61757L66.806 18.1318C66.4834 18.4441 66.067 18.6106 65.6298 18.6106H65.6194ZM49.5485 11.564C55.0338 11.564 60.3214 12.7089 65.2759 14.9676L71.4379 8.80566C64.7347 5.19387 57.2092 3.29952 49.5485 3.29952C41.8877 3.29952 34.3623 5.19387 27.6592 8.80566L33.8211 14.9676C38.7756 12.7089 44.0631 11.564 49.5485 11.564Z" />
      <path d="M49.5467 99.0899C40.5745 99.0899 31.7792 96.6543 24.108 92.0641C23.6708 91.8039 23.3794 91.3563 23.3169 90.8463C23.2545 90.3363 23.4314 89.8366 23.7853 89.4723L32.2996 80.9581C32.7992 80.4585 33.5694 80.3336 34.194 80.6458C38.9923 83.019 44.155 84.2264 49.5363 84.2264C54.9176 84.2264 60.0803 83.019 64.8787 80.6458C65.5136 80.3336 66.2734 80.4585 66.773 80.9581L75.2873 89.4723C75.6516 89.8366 75.8181 90.3363 75.7556 90.8463C75.6932 91.3563 75.4017 91.8039 74.9646 92.0641C67.2934 96.6647 58.4982 99.0899 49.5259 99.0899H49.5467ZM27.6574 90.2842C34.3605 93.896 41.8859 95.7904 49.5467 95.7904C57.2075 95.7904 64.7329 93.896 71.4361 90.2842L65.2741 84.1223C60.3196 86.381 55.0321 87.5259 49.5467 87.5259C44.0614 87.5259 38.7738 86.381 33.8193 84.1223L27.6574 90.2842Z" />
      <path d="M90.6507 75.7852C90.2135 75.7852 89.7972 75.6187 89.4849 75.3064L80.9707 66.7921C80.471 66.2925 80.3461 65.5223 80.6584 64.8978C83.0316 60.0994 84.239 54.9367 84.239 49.5555C84.239 44.1742 83.0316 39.0115 80.6584 34.2131C80.3461 33.5782 80.471 32.808 80.9707 32.3188L89.4849 23.8045C89.8492 23.4402 90.3488 23.2736 90.8589 23.3361C91.3689 23.3985 91.8164 23.69 92.0766 24.1272C96.6773 31.7983 99.1025 40.5936 99.1025 49.5659C99.1025 58.5381 96.6773 67.3334 92.0766 75.0046C91.8164 75.4417 91.3689 75.7332 90.8589 75.7956C90.786 75.7956 90.7235 75.7956 90.6507 75.7956V75.7852ZM84.1245 65.2725L90.2864 71.4344C93.8982 64.7313 95.7925 57.2058 95.7925 49.545C95.7925 41.8843 93.8982 34.3589 90.2864 27.6557L84.1245 33.8176C86.3832 38.7721 87.5281 44.0597 87.5281 49.545C87.5281 55.0304 86.3832 60.318 84.1245 65.2725Z" />
      <path d="M8.44114 75.7851C8.36828 75.7851 8.30583 75.785 8.24338 75.7746C7.73335 75.7122 7.2858 75.4207 7.02558 74.9836C2.42497 67.3124 -0.000244141 58.5171 -0.000244141 49.5449C-0.000244141 40.5726 2.42497 31.7773 7.02558 24.1062C7.2858 23.669 7.73335 23.3775 8.24338 23.3151C8.7534 23.2526 9.25302 23.4296 9.61732 23.7835L18.1316 32.2978C18.6312 32.7974 18.7561 33.5676 18.4438 34.1921C16.0707 38.9905 14.8633 44.1532 14.8633 49.5344C14.8633 54.9157 16.0707 60.0784 18.4438 64.8768C18.7561 65.5117 18.6312 66.2819 18.1316 66.7711L9.61732 75.2854C9.30507 75.5977 8.88873 75.7746 8.45156 75.7746L8.44114 75.7851ZM8.80542 27.6555C5.19362 34.3587 3.29928 41.8841 3.29928 49.5449C3.29928 57.2056 5.19362 64.7311 8.80542 71.4343L14.9674 65.2723C12.7087 60.3178 11.5637 55.0302 11.5637 49.5449C11.5637 44.0595 12.7087 38.7719 14.9674 33.8174L8.80542 27.6555Z" />
      <path d="M49.5462 11.5537C28.604 11.5537 11.5547 28.5926 11.5547 49.5452C11.5547 70.4978 28.5936 87.5367 49.5462 87.5367C70.4988 87.5367 87.5377 70.4978 87.5377 49.5452C87.5377 28.5926 70.4988 11.5537 49.5462 11.5537ZM70.9256 37.0653C72.7263 40.1462 73.8192 43.5082 74.1731 47.0784C74.1835 47.2241 74.121 47.3594 73.9961 47.4323C71.2794 49.0977 68.8438 51.1378 66.7413 53.5213C66.6476 53.6358 66.4915 53.6774 66.3562 53.6254L61.6619 52.0954C61.5266 52.0537 61.4329 51.9393 61.4121 51.7935C60.8812 47.9111 59.6738 44.1952 57.8211 40.7395C57.7586 40.6146 57.7691 40.4689 57.8523 40.3544L60.7563 36.3575C60.8292 36.2638 60.9437 36.2014 61.0582 36.2014C61.0894 36.2014 61.1102 36.2014 61.1414 36.2014C64.2432 36.8883 67.4283 37.1173 70.5925 36.8571C70.7382 36.8467 70.8735 36.9195 70.9464 37.0444L70.9256 37.0653ZM58.8515 52.4492C58.8619 52.5533 58.8307 52.6574 58.7682 52.7303C56.3014 55.5718 53.158 57.8513 49.6919 59.3085C49.5983 59.3502 49.5046 59.3502 49.4109 59.3085C45.9448 57.8409 42.8014 55.5614 40.3346 52.7303C40.2721 52.6574 40.2409 52.5533 40.2513 52.4492C40.7301 48.6813 41.9063 45.0799 43.7278 41.7492C43.7799 41.6555 43.8631 41.5931 43.9672 41.5722C45.7991 41.1871 47.6727 40.9894 49.5566 40.9894C51.4406 40.9894 53.3141 41.1871 55.1461 41.5722C55.2501 41.5931 55.3334 41.6555 55.3854 41.7492C57.2069 45.0799 58.3727 48.6813 58.8619 52.4492H58.8515ZM58.2895 26.615C58.2895 26.615 58.4144 26.5109 58.5393 26.5109C58.5809 26.5109 58.633 26.5109 58.685 26.5422C62.5154 28.0618 65.9398 30.5599 68.6044 33.7553C68.7397 33.9115 68.6877 34.078 68.6564 34.1405C68.6356 34.1925 68.542 34.3591 68.3234 34.3591C65.9607 34.3903 63.6083 34.1197 61.3288 33.5784C61.2351 33.5576 61.1519 33.4951 61.0998 33.4118C59.882 31.403 58.9036 29.238 58.1958 26.9897C58.1333 26.792 58.2479 26.6567 58.2999 26.615H58.2895ZM44.2899 25.366C47.7351 24.627 51.3677 24.627 54.813 25.366C54.9483 25.3972 55.0628 25.5013 55.094 25.6366C55.833 28.728 57.03 31.684 58.6433 34.4215C58.7162 34.5464 58.7058 34.7025 58.6226 34.8274L55.7394 38.8035C55.6561 38.918 55.5104 38.9805 55.3751 38.9492C51.5655 38.179 47.5374 38.179 43.7278 38.9492C43.5925 38.9805 43.4467 38.918 43.3635 38.8035L40.4803 34.8274C40.3971 34.7129 40.3866 34.5464 40.4595 34.4215C42.0728 31.684 43.2698 28.728 44.0088 25.6366C44.04 25.5013 44.1545 25.3972 44.2899 25.366ZM30.4984 33.7553C33.163 30.5495 36.5875 28.0514 40.4179 26.5422C40.4699 26.5214 40.5219 26.5109 40.5635 26.5109C40.6989 26.5109 40.7821 26.5838 40.8133 26.615C40.8654 26.6671 40.9799 26.792 40.9175 26.9897C40.2097 29.2484 39.2312 31.403 38.0134 33.4118C37.9614 33.4951 37.8781 33.5576 37.7845 33.5784C35.505 34.1197 33.1526 34.3903 30.7899 34.3591C30.5713 34.3591 30.4776 34.1925 30.4568 34.1405C30.4256 34.078 30.3735 33.9115 30.5088 33.7553H30.4984ZM28.1773 37.0653C28.2398 36.9508 28.3647 36.8779 28.5 36.8779C28.5 36.8779 28.5208 36.8779 28.5312 36.8779C31.7058 37.1277 34.8909 36.9092 37.9822 36.2222C38.1279 36.191 38.2737 36.243 38.3569 36.3679L41.261 40.3648C41.3442 40.4793 41.3546 40.6354 41.2922 40.7499C39.4394 44.2056 38.232 47.9215 37.7012 51.8039C37.6804 51.9392 37.5867 52.0537 37.4514 52.1058L32.7571 53.6358C32.6218 53.6774 32.4656 53.6358 32.372 53.5318C30.2694 51.1482 27.8338 49.108 25.1172 47.4427C25.0027 47.3698 24.9298 47.2345 24.9402 47.0888C25.2941 43.5186 26.387 40.1463 28.1877 37.0757L28.1773 37.0653ZM29.3118 62.7122C29.2494 62.9099 29.0724 62.9516 28.9996 62.962C28.9267 62.962 28.7601 62.9619 28.6456 62.7954C26.4286 59.3085 25.1172 55.27 24.857 51.1274C24.8465 50.9192 24.9818 50.8151 25.0443 50.7839C25.1068 50.7526 25.2733 50.6798 25.4398 50.8047C27.3654 52.1682 29.1141 53.7712 30.6442 55.551C30.7066 55.6239 30.7378 55.7176 30.7274 55.8217C30.54 58.1636 30.0612 60.4847 29.3014 62.7226L29.3118 62.7122ZM39.5956 72.2153C36.3481 70.7893 33.4857 68.6971 31.0917 66.0117C30.998 65.9076 30.9668 65.7515 31.0188 65.6266C32.2367 62.6913 33.0069 59.6 33.3088 56.4357C33.3192 56.29 33.4232 56.1651 33.5586 56.1235L38.2008 54.6142C38.2008 54.6142 38.2737 54.5934 38.3153 54.5934C38.4194 54.5934 38.5131 54.6351 38.5859 54.7184C41.1881 57.6328 44.446 60.0059 48.0162 61.5776C48.1515 61.6401 48.2347 61.765 48.2347 61.9107V66.7923C48.2347 66.9381 48.1515 67.0734 48.0162 67.1254C45.1017 68.3849 42.3955 70.0815 39.9702 72.1528C39.8662 72.2465 39.71 72.2673 39.5851 72.2048L39.5956 72.2153ZM55.9683 73.2457C55.9579 73.3186 55.9059 73.4851 55.6977 73.5371C51.68 74.5572 47.4332 74.5572 43.4155 73.5371C43.2177 73.4851 43.1553 73.3186 43.1449 73.2457C43.1345 73.1729 43.1137 73.0063 43.2906 72.871C45.185 71.4659 47.2459 70.2896 49.4213 69.3841C49.515 69.3425 49.6087 69.3425 49.7024 69.3841C51.8674 70.2896 53.9283 71.4659 55.8331 72.871C55.9996 72.9959 55.9891 73.1729 55.9787 73.2457H55.9683ZM68.032 66.0221C65.638 68.7075 62.7756 70.7893 59.5281 72.2153C59.3928 72.2777 59.2471 72.2464 59.143 72.1632C56.7178 70.0919 54.0219 68.3953 51.0971 67.1358C50.9618 67.0734 50.8785 66.9485 50.8785 66.8028V61.9211C50.8785 61.7754 50.9618 61.6401 51.0971 61.588C54.6672 60.0163 57.9356 57.6431 60.5273 54.7287C60.6002 54.6454 60.6939 54.6038 60.7979 54.6038C60.8396 54.6038 60.8708 54.6038 60.9124 54.6246L65.5547 56.1339C65.69 56.1755 65.7941 56.3004 65.8045 56.4462C66.1063 59.6104 66.8766 62.6914 68.0944 65.637C68.1464 65.7619 68.1256 65.918 68.0215 66.0221H68.032ZM70.4676 62.8058C70.3531 62.9828 70.1761 62.9828 70.1137 62.9724C70.0408 62.9724 69.8743 62.9204 69.8014 62.7226C69.052 60.4847 68.5732 58.1636 68.3755 55.8217C68.3755 55.728 68.3962 55.6239 68.4587 55.551C69.9887 53.7712 71.7374 52.1786 73.663 50.8047C73.7359 50.7527 73.8087 50.7318 73.8712 50.7318C73.9545 50.7318 74.0169 50.763 74.0585 50.7839C74.121 50.8151 74.2668 50.9192 74.2459 51.1274C73.9857 55.27 72.6742 59.3085 70.4572 62.7954L70.4676 62.8058Z" />
    </symbol>

    <symbol id='timer' viewBox="0 0 100 100" >
      <path d="M49.5529 99.1214C36.8544 99.1214 24.1663 94.2918 14.4966 84.6222C-4.83221 65.2934 -4.83221 33.8489 14.4966 14.5201C23.8644 5.15229 36.3131 0 49.5529 0C62.7927 0 75.2414 5.15229 84.6092 14.5201C103.938 33.8489 103.938 65.2934 84.6092 84.6222C74.95 94.2814 62.2514 99.1214 49.5529 99.1214ZM17.0988 82.02C34.9912 99.9125 64.1042 99.9125 81.9966 82.02C99.8891 64.1276 99.8891 35.0147 81.9966 17.1222C73.3262 8.45183 61.8039 3.68463 49.5425 3.68463C37.2811 3.68463 25.7588 8.46223 17.0884 17.1222C-0.804078 35.0147 -0.804078 64.1276 17.0884 82.02H17.0988Z" />
      <path d="M51.3874 39.1362L42.207 52.0013H47.7131V61.1817L56.8935 48.327H51.3874V39.1362Z" />
      <path d="M49.5432 31.9854C39.4884 31.9854 31.3281 40.1457 31.3281 50.2005C31.3281 60.2552 39.4884 68.3948 49.5432 68.3948C59.5979 68.3948 67.7583 60.2344 67.7583 50.2005C67.7583 40.1665 59.5979 31.9854 49.5432 31.9854ZM49.5432 66.1465C40.7167 66.1465 33.5555 58.9854 33.5555 50.1589C33.5555 41.3323 40.7167 34.1712 49.5432 34.1712C58.3697 34.1712 65.5309 41.3323 65.5309 50.1589C65.5309 58.9854 58.3697 66.1465 49.5432 66.1465Z" />
      <path d="M77.7002 21.4209C70.1851 13.8954 60.1824 9.76318 49.5447 9.76318C38.9071 9.76318 28.9148 13.9058 21.3894 21.4209C5.87012 36.9401 5.87012 62.2019 21.3894 77.7316C29.1542 85.4964 39.3443 89.3788 49.5447 89.3788C59.7452 89.3788 69.9353 85.4964 77.7002 77.7316C93.2194 62.2123 93.2194 36.9506 77.7002 21.4209ZM49.5447 74.9109C35.9302 74.9109 24.8451 63.8256 24.8451 50.2111C24.8451 44.1949 26.9997 38.6784 30.5802 34.3692L27.5617 31.3507C26.6978 30.4868 26.6978 29.0816 27.5617 28.2073C28.4256 27.333 29.8308 27.3434 30.7051 28.2073L33.7237 31.2258C37.4708 28.0928 42.1858 26.0319 47.3277 25.5947V23.5546H45.2876C43.4869 23.5546 41.9985 22.0662 41.9985 20.2655V18.5481C41.9985 16.7266 43.4869 15.259 45.2876 15.259H53.8227C55.6234 15.259 57.1118 16.7266 57.1118 18.5481V20.2655C57.1118 22.0662 55.6234 23.5546 53.8227 23.5546H51.7826V25.5947C56.9349 26.0423 61.6396 28.1032 65.3867 31.2258L68.4052 28.2073C69.2691 27.3434 70.6743 27.3434 71.5486 28.2073C72.4125 29.0712 72.4125 30.4764 71.5486 31.3507L68.5301 34.3692C72.1107 38.6784 74.2652 44.1845 74.2652 50.2111C74.2652 63.8256 63.1801 74.9109 49.5656 74.9109H49.5447Z" />
    </symbol>

    <symbol id='crown'  viewBox="0 0 100 100" >
      <path d="M14.6173 85.3055C-4.87243 65.8157 -4.87243 34.107 14.6173 14.6173C34.107 -4.87243 65.8157 -4.87243 85.3054 14.6173C104.795 34.107 104.795 65.8157 85.3054 85.3055C65.8157 104.795 34.107 104.795 14.6173 85.3055ZM82.9498 16.9729C64.7588 -1.21811 35.164 -1.21811 16.9777 16.9729C-1.21338 35.164 -1.21338 64.7588 16.9777 82.9451C35.1687 101.136 64.7635 101.136 82.9498 82.9451C101.141 64.7541 101.141 35.1592 82.9498 16.9729Z"/>
      <path d="M83.4893 39.3587C83.3139 39.1833 83.1717 38.9605 83.0912 38.7141C81.3612 33.5952 78.5363 29.0593 74.6971 25.2201C70.8626 21.3856 66.322 18.5608 61.2031 16.826C60.5253 16.5938 60.0703 15.9634 60.0703 15.2477V3.09982C60.0703 2.58793 60.3073 2.10447 60.7102 1.78691C61.1178 1.46935 61.6439 1.36034 62.1368 1.48358C70.8863 3.67333 78.8965 8.21397 85.2951 14.6173C91.6937 21.0207 96.2344 29.0261 98.4241 37.7756C98.5474 38.2733 98.4336 38.7994 98.1208 39.207C97.8032 39.6146 97.3198 39.8469 96.8079 39.8469H84.66C84.205 39.8469 83.7879 39.662 83.4798 39.3539L83.4893 39.3587ZM77.0527 22.8644C80.9677 26.7794 83.9206 31.3675 85.8449 36.5148H94.6324C92.4237 29.1588 88.4091 22.4379 82.9442 16.973C77.4793 11.5081 70.7584 7.49354 63.4071 5.28957V14.077C68.5544 15.9966 73.1424 18.9494 77.0574 22.8692L77.0527 22.8644Z"/>
      <path d="M14.6161 85.3054C8.21749 78.9067 3.67209 70.8966 1.48234 62.1471C1.35911 61.6494 1.47287 61.1233 1.78569 60.7204C2.10325 60.3128 2.58668 60.0806 3.09857 60.0806H15.2465C15.9622 60.0806 16.5973 60.5356 16.8248 61.2134C18.5548 66.3323 21.3797 70.8682 25.2188 74.7074C29.0533 78.5418 33.594 81.3666 38.7129 83.1014C39.3906 83.3289 39.8456 83.964 39.8456 84.6797V96.8276C39.8456 97.3395 39.6086 97.823 39.2058 98.1405C38.7981 98.4581 38.272 98.5671 37.7743 98.4438C29.0248 96.2541 21.0195 91.7135 14.6161 85.3149V85.3054ZM5.28361 63.4079C7.49231 70.7639 11.5068 77.4848 16.9717 82.9497C22.4366 88.4146 29.1576 92.4292 36.5136 94.6379V85.8504C31.3663 83.9308 26.7782 80.978 22.8632 77.063C18.9482 73.148 15.9954 68.5599 14.071 63.4126H5.28361V63.4079Z"/>
      <path d="M60.5663 97.9985C60.2535 97.6857 60.0781 97.2638 60.0781 96.8183V84.6704C60.0781 83.9547 60.5331 83.3196 61.2109 83.0921C66.3298 81.3621 70.8657 78.5372 74.7049 74.6981C78.5441 70.8589 81.3642 66.323 83.0989 61.2041C83.3264 60.5263 83.9616 60.0713 84.6773 60.0713H96.8252C97.3371 60.0713 97.8205 60.3083 98.1381 60.7111C98.4556 61.114 98.5647 61.6449 98.4414 62.1378C96.2469 70.8873 91.7063 78.8927 85.3076 85.2961C78.909 91.6994 70.8989 96.2401 62.1494 98.4298C61.6517 98.5531 61.1256 98.4393 60.7227 98.1265C60.6706 98.0791 60.6185 98.0364 60.5711 97.989L60.5663 97.9985ZM63.4102 85.8459V94.6333C70.7662 92.4246 77.4871 88.4101 82.952 82.9452C88.4169 77.4803 92.4267 70.7593 94.6402 63.4033H85.8527C83.9331 68.5506 80.9803 73.1339 77.0605 77.0537C73.1455 80.9687 68.5575 83.9263 63.4102 85.8459Z"/>
      <path d="M1.91913 39.3589C1.87173 39.3115 1.82435 39.2594 1.78643 39.2072C1.46887 38.8044 1.35985 38.2735 1.48309 37.7758C3.67284 29.0263 8.2135 21.0162 14.6169 14.6176C21.0202 8.21894 29.0256 3.67356 37.7751 1.48381C38.2728 1.36058 38.7989 1.47432 39.2017 1.78714C39.6046 2.1047 39.8417 2.58817 39.8417 3.10005V15.248C39.8417 15.9637 39.3866 16.5988 38.7089 16.8263C33.59 18.5563 29.054 21.3811 25.2148 25.2203C21.3804 29.0547 18.5555 33.5954 16.8208 38.7143C16.5933 39.3921 15.9582 39.8471 15.2425 39.8471H3.0946C2.64907 39.8471 2.22247 39.6717 1.91439 39.3636L1.91913 39.3589ZM36.5096 5.2898C29.1536 7.49851 22.4326 11.5131 16.9677 16.978C11.5028 22.4428 7.49305 29.1638 5.27961 36.5198H14.067C15.9866 31.3725 18.9395 26.7892 22.8592 22.8694C26.7742 18.9544 31.3623 16.0016 36.5096 14.0772V5.2898Z"/>
      <path fill-rule="evenodd" clip-rule="evenodd" d="M77.0566 22.8642C62.117 7.92459 37.8023 7.91985 22.8627 22.8642C7.91839 37.8085 7.92313 62.1185 22.8627 77.0581C37.8023 91.9977 62.1123 92.0025 77.0566 77.0581C92.001 62.1138 91.9962 37.8038 77.0566 22.8642ZM63.7834 63.6388L36.2558 63.8213C35.0962 63.829 34.1623 64.7753 34.17 65.9349L34.1765 66.916C34.1842 68.0756 35.1305 69.0094 36.2901 69.0017L63.8178 68.8192C64.9774 68.8115 65.9112 67.8652 65.9035 66.7056L65.897 65.7245C65.8893 64.5649 64.943 63.6311 63.7834 63.6388ZM39.1294 46.8235C39.4043 46.9562 39.7076 47.0225 40.0062 47.0225L40.0015 47.0178C40.6461 47.0178 41.2528 46.6955 41.6178 46.1646L43.0207 44.1313C43.3335 43.6763 43.4425 43.1075 43.3193 42.5672C43.1961 42.0269 42.8501 41.5576 42.3714 41.2875L39.8119 39.8276C39.5086 39.6523 39.1673 39.567 38.8213 39.567C38.0156 39.5717 37.2999 40.0599 36.9965 40.8088L36.0106 43.2639C35.622 44.2261 36.0486 45.3305 36.9823 45.7855L39.1294 46.8235ZM59.8211 46.8899C59.1765 46.8899 58.5651 46.5819 58.1954 46.0557L56.8066 44.0982C56.4843 43.648 56.3706 43.0792 56.4844 42.5389C56.5981 41.9985 56.9394 41.5246 57.4181 41.2449L60.0581 39.695C60.3567 39.5197 60.698 39.4249 61.044 39.4201C61.8497 39.4154 62.5749 39.8941 62.8877 40.6382L63.8831 43.0223C64.2812 43.9797 63.8689 45.0936 62.9446 45.5581L60.698 46.6814C60.4278 46.8141 60.1244 46.8899 59.8258 46.8899H59.8211ZM35.1373 60.0947C35.5497 61.2322 36.635 61.9906 37.8437 61.9811V61.9763L62.1869 61.8152C63.3955 61.8057 64.4762 61.0379 64.8696 59.8956L69.1827 47.5013C69.4576 47.6529 69.7515 47.7714 70.0548 47.8662C70.5241 48.0084 71.0075 48.0748 71.5004 48.0748L71.8038 48.0653C74.349 47.8899 76.3302 45.7476 76.3112 43.1976C76.297 40.5244 74.1073 38.3631 71.4341 38.382C68.9836 38.3963 66.9266 40.2448 66.6517 42.681C66.6327 42.8706 66.6233 43.0649 66.6233 43.2592C66.6233 43.6905 66.6849 44.1171 66.7987 44.5247C66.8934 44.8612 67.0214 45.1835 67.1825 45.4916L58.5894 49.7906L51.7879 40.2068C52.0676 40.0883 52.3377 39.9414 52.5889 39.766C53.0676 39.439 53.4848 39.0266 53.826 38.5432C54.4706 37.619 54.7692 36.5336 54.6886 35.4008C54.5133 33.0072 52.5795 31.0876 50.1859 30.9265C50.0675 30.917 49.9443 30.917 49.8259 30.917H49.8257C47.1525 30.936 44.9912 33.1257 45.0101 35.7989C45.0149 36.7942 45.3277 37.7564 45.9059 38.5716C46.2472 39.0503 46.669 39.458 47.1525 39.785C47.4084 39.9604 47.6786 40.1073 47.9583 40.2258L41.2752 49.909L32.54 45.6812C32.7106 45.4063 32.8575 45.1172 32.976 44.8139C33.194 44.2593 33.2983 43.6668 33.2983 43.0507C33.2841 40.3775 31.0943 38.2162 28.4211 38.2351C25.7479 38.2541 23.5866 40.4438 23.6056 43.117C23.6198 45.5343 25.4351 47.5866 27.8286 47.8899C28.0419 47.9184 28.26 47.9278 28.4827 47.9278C28.8666 47.9278 29.2458 47.8804 29.6203 47.7856C29.9378 47.7051 30.2507 47.5961 30.5445 47.4539L35.1373 60.0947Z"/>
    </symbol>

    <symbol id="long-planet"  viewBox="0 0 100 220">
      <path d="M0.0625 49.5555C0.0625 22.2328 22.2954 0 49.6181 0C76.9407 0 99.1736 22.2328 99.1736 49.5555C99.1736 76.8782 76.9407 99.111 49.6181 99.111C22.2954 99.111 0.0625 76.8782 0.0625 49.5555ZM95.6034 49.5555C95.6034 24.2001 74.9735 3.57015 49.6181 3.57015C24.2626 3.57015 3.63272 24.2001 3.63272 49.5555C3.63272 74.9109 24.2626 95.5408 49.6181 95.5408C74.9735 95.5408 95.6034 74.9109 95.6034 49.5555Z"/>
      <path d="M0.0598366 170.702C0.0598366 169.713 0.861324 168.922 1.83974 168.922C2.81815 168.922 3.61964 169.723 3.61964 170.702C3.61964 196.057 24.2495 216.687 49.605 216.687C74.9604 216.687 95.5903 196.057 95.5903 170.702C95.5903 169.713 96.3918 168.922 97.3702 168.922C98.3486 168.922 99.1501 169.723 99.1501 170.702C99.1501 198.024 76.9172 220.257 49.5946 220.257C22.2719 220.257 0.0390625 198.024 0.0390625 170.702H0.0598366Z"/>
      <path d="M97.659 48.3589H75.957V52.6368H97.659V48.3589Z"/>
      <path d="M22.9364 48.3589H1.23438V52.6368H22.9364V48.3589Z"/>
      <path d="M51.9264 77.3364H47.6484V99.0385H51.9264V77.3364Z"/>
      <path d="M51.9264 1.95703H47.6484V23.659H51.9264V1.95703Z"/>
      <path d="M75.3015 23.3469C60.4588 8.50416 36.3836 8.50416 21.5305 23.3469C6.68776 38.1896 6.68776 62.2648 21.5305 77.1179C36.3732 91.9606 60.4484 91.9606 75.3015 77.1179C90.1442 62.2752 90.1442 38.2 75.3015 23.3469ZM55.7645 26.5632C60.0945 27.9059 63.9769 30.4143 66.9954 33.8284L67.5783 34.4841L66.7248 34.6819C64.4661 35.2127 62.0513 35.6499 59.5532 35.9726L59.1057 36.035L58.9808 35.5979C58.5644 34.1719 58.0752 32.7979 57.5131 31.5281C56.8158 29.9355 56.0351 28.5408 55.1816 27.3646L54.2448 26.0844L55.7645 26.5528V26.5632ZM38.3925 49.0458L38.4133 48.5045C38.5174 45.2154 38.8817 42.072 39.5062 39.1784L39.5999 38.7205L40.0682 38.7621C45.5432 39.2409 51.3929 39.2201 56.8366 38.71L57.3049 38.6684L57.4091 39.1264C58.044 42.0512 58.4083 45.205 58.502 48.5045V49.0458H38.4029H38.3925ZM58.502 51.4606V52.0019C58.3875 55.3014 58.0232 58.4552 57.3882 61.38L57.2842 61.838L56.8158 61.7964C51.3721 61.2864 45.5224 61.276 40.0475 61.7443L39.5791 61.786L39.4854 61.328C38.8608 58.4344 38.4966 55.3014 38.3925 52.0019L38.3716 51.4606H58.4811H58.502ZM48.4473 25.6576C51.4762 25.6576 54.5571 29.4984 56.4827 35.6915L56.6805 36.3161L56.0247 36.3681C53.4642 36.5867 50.8204 36.7012 48.1662 36.7012C45.6994 36.7012 43.2429 36.6075 40.8489 36.4097L40.1931 36.3577L40.3909 35.7228C42.3165 29.5088 45.4079 25.6472 48.4473 25.6472V25.6576ZM29.7949 33.9429C32.8343 30.4768 36.7479 27.9267 41.13 26.5736L42.6601 26.1052L41.7128 27.3959C40.8593 28.5616 40.0683 29.9668 39.3813 31.5489C38.8296 32.7979 38.33 34.1927 37.8929 35.6915L37.768 36.1183L37.3204 36.0663C34.8015 35.754 32.3659 35.3376 30.076 34.8068L29.2121 34.609L29.7949 33.9429ZM23.7163 48.4838C24.0078 44.4244 25.3088 40.4691 27.4842 37.0238L27.6924 36.7012L28.0671 36.7948C30.7317 37.4714 33.6045 38.0127 36.623 38.3978L37.1851 38.4707L37.0706 39.0327C36.446 42.0512 36.0922 45.2467 35.9985 48.5358V49.0458H23.6851L23.7267 48.4838H23.7163ZM27.6924 63.8052L27.4842 63.4826C25.3088 60.0477 24.0078 56.082 23.7163 52.0227L23.6746 51.4606H35.9777V51.9706C36.0817 55.2598 36.4461 58.4656 37.0602 61.4737L37.1747 62.0358L36.6126 62.1086C33.6045 62.4937 30.7213 63.035 28.0567 63.7116L27.682 63.8052H27.6924ZM41.13 73.9432C36.7479 72.5901 32.8343 70.04 29.7949 66.574L29.2121 65.9078L30.076 65.71C32.3659 65.1896 34.8015 64.7628 37.3204 64.4506L37.768 64.3985L37.8929 64.8253C38.33 66.3242 38.8296 67.7189 39.3813 68.9679C40.0787 70.5605 40.8593 71.9552 41.7128 73.1314L42.6601 74.4221L41.13 73.9537V73.9432ZM48.4473 74.8488C45.4079 74.8488 42.3165 70.9872 40.3909 64.7732L40.1931 64.1383L40.8489 64.0863C45.8138 63.6908 51.1014 63.7011 56.0247 64.1279L56.6805 64.1799L56.4827 64.8045C54.5467 70.9872 51.4658 74.8384 48.4473 74.8384V74.8488ZM66.9954 66.678C63.9769 70.0921 60.0841 72.6005 55.7645 73.9432L54.2448 74.4116L55.1816 73.1314C56.0351 71.9656 56.8158 70.5605 57.5131 68.9679C58.0648 67.6877 58.5644 66.3241 58.9808 64.8981L59.1057 64.461L59.5532 64.5234C62.0513 64.8461 64.4661 65.2833 66.7248 65.8141L67.5783 66.0223L66.9954 66.678ZM73.1678 52.0227C72.8763 56.1237 71.5544 60.131 69.327 63.6075L69.1188 63.9301L68.7441 63.8365C66.1107 63.1391 63.2483 62.5874 60.2506 62.1815L59.6886 62.1086L59.803 61.557C60.4276 58.5385 60.7918 55.3222 60.8855 51.981V51.471H73.199L73.1573 52.0331L73.1678 52.0227ZM60.9064 49.0458V48.5358C60.8023 45.1946 60.438 41.9679 59.8135 38.9598L59.699 38.4082L60.261 38.3353C63.2587 37.9294 66.1107 37.3777 68.7544 36.6803L69.1292 36.5867L69.3373 36.9094C71.5648 40.3858 72.8971 44.3828 73.1781 48.4942L73.2198 49.0562H60.9168L60.9064 49.0458Z"/>
      <path d="M0.000183105 171.451V51.8556C0.000183105 50.8668 0.801671 50.0757 1.78008 50.0757C2.75849 50.0757 3.55998 50.8772 3.55998 51.8556V171.451C3.55998 172.44 2.75849 173.231 1.78008 173.231C0.801671 173.231 0.000183105 172.429 0.000183105 171.451Z"/>
      <path d="M95.5508 171.722V52.1266C95.5508 51.1378 96.3522 50.3467 97.3306 50.3467C98.309 50.3467 99.1105 51.1482 99.1105 52.1266V171.722C99.1105 172.711 98.309 173.502 97.3306 173.502C96.3522 173.502 95.5508 172.7 95.5508 171.722Z"/>
  </symbol>

  </defs>
</svg>
